<svg viewBox="0 0 25.6 25.6" width="16" height="16" xmlns="http://www.w3.org/2000/svg"><path d="M0 0h25.6v25.6H0z" fill="#083B22"/><path d="M9.975 12.85h.138l.1.025.088.063.038.063.013.05v.188l-.038.113-.063.075-.2.025-.113.075-.063.075-.013.113v.438l-.013.5.013.375.013.963v2.188l-.025.238-.038.537-.05.3-.1.35-.05.138-.1.15-.125.163-.1.138-.113.1-.113.075-.113.088-.288.125-.188.05-.175.013h-.138l-.313-.038-.263-.075-.125-.05-.125-.088-.213-.15-.088-.125-.113-.213-.063-.275v-.263l.075-.25.075-.225.113-.125.188-.188.188-.1.163-.05.175-.038.125-.013h.575l.163.063.138.088.075.088.038.15-.013.088-.038.075-.063.063H8.72l-.263-.075-.125-.025h-.25l-.25.05-.15.075-.125.113-.063.1-.025.088-.013.1v.175l.025.113.1.15.075.088.15.075.113.038.175.025h.175l.163-.025.2-.088.15-.113.113-.125.075-.113.075-.163.063-.225.038-.2.013-.188.013-.038v-1l-.013-.013-.013-.875.013-.388v-.263l-.013-.1.013-.438V13.99l.063-.338.025-.163-.363.013-.313.038-.2.075-.138.088-.1.088-.1.238-.075.15-.05.038-.1.025h-.15l-.125-.05-.088-.1-.038-.1v-.15l.038-.2.063-.15.088-.125.113-.125.138-.088.213-.113.163-.063.275-.075.138-.013.225-.013.113-.013.338.013h.238z" fill="#F9D420"/><path d="m8.088 4.95.175.013.288.05.175.05.15.063.163.1.175.138.188.2.125.163.125.263.063.175.025.225v.163l-.038.275-.063.238-.1.238-.138.25-.113.138-.113.125-.1.075-.125.075-.288.113-.25.05-.338.038-.15.038-.113.075-.075.163-.025.163v.375l.038.525.025 1.738v.55l-.013.625-.025.113-.038.125-.1.188-.1.125-.15.15-.125.1-.163.1-.275.113h-.138l-.063-.038-.05-.125-.025-.2v-.238l.075-.063.15-.063.15-.1.125-.113.1-.2.025-.15-.013-1.513-.025-.125.013-.4.013-.638v-.225l-.013-.588-.025-.275-.038-.163-.038-.063-.063-.025h-.138l-.088.038-.05.063-.038.15.025.088.113.1.1.088.025.063-.013.2-.025.213-.05.063-.025.013h-.088l-.2-.075-.138-.075-.125-.1-.1-.138-.075-.163-.038-.225.013-.2.038-.138.075-.175.088-.113.1-.1.188-.125.188-.075.163-.038.113-.025.075-.038.038-.188.025-.225.025-.288.063-.05.075-.025h.213l.113.05.075.088.038.1.025.4.038.225.138.038h.35l.175-.038.2-.1.238-.163L9 7.104l.1-.2.025-.113v-.325l-.05-.225L9 6.103l-.1-.113-.113-.088-.175-.15-.15-.088-.175-.038-.113.013-.313.075-.175.063-.15.088h-.063l-.163-.15-.1-.1-.063-.125v-.113l.038-.075.1-.075.2-.113.338-.113z" fill="#F8D420"/><path d="M11.575 8.625h.35l.25.025.213.013.263.075.125.075.113.1.075.1.1.138.088.15.013.1.038.1.013.138.025.05v.15l.025.188v.588l-.025.238-.013.113v.213l-.025.188-.038.188-.088.175-.113.125-.163.163-.2.1-.225.063-.063.013-.6.013-.1.05-.013.013-.013.963-.038.15-.05.1-.088.088-.1.038-.175-.038-.088-.1-.063-.213-.013-.463v-.688l.013-.313v-1.381l-.013-.463.013-.25v-.238l.013-.063.013-.4.05-.138.075-.1.075-.05.163-.063zM16.5 14.8h.35l.288.063.213.1.113.088.15.15.088.1.063.125.075.2.025.2.013.163.013.213v1.275l-.038.3-.063.2-.1.188-.1.15-.088.088-.163.113-.3.1-.275.038h-.225l-.238-.038-.263-.125-.1-.075-.113-.113-.138-.175-.075-.15-.1-.4-.025-.138.013-1.45.013-.275.075-.263.125-.213.075-.1.125-.1.138-.088.188-.088.188-.05zm-1.888-6.188h.125l.25.05.225.088.138.088.163.15.075.088.088.175.063.213.038.263v1.788l-.013.238-.063.2-.05.075-.1.075-.138.063-.05.013-.475.013-.4-.038-.15-.013-.25-.113-.138-.113-.088-.088v-.025l-.038-.013-.088-.138-.075-.263-.05-.288.013-.225.038-.25.05-.163.075-.15.125-.163.138-.113.138-.088.113-.038.175-.038.238-.013.088-.013.313-.013.075-.013.013-.038v-.188l-.05-.163-.075-.125-.125-.088-.075-.038-.125-.025h-.225l-.125.038-.125.063-.113.088-.113.113-.063.038h-.213l-.075-.063-.05-.1v-.138l.088-.138.088-.113.163-.125.175-.1.15-.063zm-5.213.013h.288l.163.038.2.075.163.1.125.113.063.05.075.113.088.188.063.313.013.113v1.688l-.013.325-.038.163-.063.113-.1.088-.15.063-.038.013h-.625l-.388-.038-.113-.038-.088-.05-.088-.038-.063-.063-.1-.075-.125-.15-.063-.125-.075-.3-.025-.188.013-.275.05-.288.063-.15.075-.138.175-.188.113-.075.15-.075.2-.05.325-.025.35-.013.05-.025.013-.038v-.138l-.038-.188-.075-.125-.1-.088-.125-.05-.075-.025-.325.013-.2.1-.063.038-.088.1-.1.075-.038.013h-.2l-.1-.088-.025-.138.025-.113.075-.113.088-.1.15-.125.175-.1.113-.05zm3.188 6.138.125.013.125.05.075.088.05.075v.2l-.013.413v2.038l-.013.65-.05.213-.063.063-.088.038-.063.013h-.125l-.1-.063-.038-.063-.063.013-.275.1-.313.038h-.1l-.263-.05-.2-.075-.138-.088-.188-.175-.1-.125-.125-.238-.038-.163-.025-.113-.05-.525v-.175l.013-.338v-.663l-.013-.537-.013-.188.025-.125.05-.138.05-.063.138-.088h.138l.125.05.05.063.063.125.013.15-.013.825-.013.075-.013.688v.288l.038.438.075.225.05.113.113.088.113.075.163.025h.225l.225-.125.075-.063.1-.188.05-.2.025-.338v-.15l-.025-.563-.013-.475-.013-.075.013-.338v-.5l.05-.1.1-.088zm1.012-1.563h.175l.125.063.063.1.025.113.013.138v1.063l-.013 2.388.013.05v1.225l-.038.138-.063.1-.1.063-.063.013h-.138l-.1-.05-.088-.088-.038-.1-.025-.1v-.513l-.013-.388-.013-.063v-.163l.013-.075v-1.575l-.013-.313.025-.05-.013-.413-.013-.1.013-.1v-.225l-.013-.063.025-.7.05-.2.1-.138.038-.025z" fill="#F9D420"/><path d="M16.525 15.4h.25l.188.063.113.063.075.088.05.075.088.175.025.15v.838l-.013.575-.088.3-.063.113-.1.088-.125.075-.1.025H16.6l-.188-.05-.125-.075-.075-.1-.075-.15-.038-.188-.013-.537-.013-.25v-.613l.025-.175.063-.188.063-.1.113-.113.15-.075z" fill="#083B22"/><path d="M13.4 19.113h.113l.125.05.088.088.063.088.013.038v.125l-.05.188-.175.325-.1.125-.088.1-.113.125-.163.125-.25.163-.338.1-.25.038h-.363l-.163-.075-.213-.063-.313-.15-.163-.1-.3-.163-.175-.1-.175-.113-.2-.138-.175-.138-.075-.088-.013-.063v-.088l.038-.213.063-.125.063-.05.063.013.15.125.375.238.3.163.188.125.35.188.175.088.188.063.188.038h.225l.325-.113.113-.075.138-.113.113-.163.15-.263.038-.138.1-.125.038-.038z" fill="#F9D420"/><path d="M11.95 9.2h.175l.163.025.138.05.1.075.088.15.05.163.025.35.013.013v.537l-.013.388-.025.188-.025.15-.063.125-.063.088-.088.063-.163.05h-.363l-.138-.025-.125-.05-.05-.038-.013-.7V9.313l.1-.088.225-.013z" fill="#083B22"/><path d="M12.025 5.125h.113l.15.038.15.088.1.1.088.138.05.2v1.763l-.013.113-.025.038-.063.013h-.288l-.013-.138-.013-.55-.35.013-.013.088-.013.537-.025.038-.063.013h-.263l-.038-.013-.013-.15v-.413l.013-1.4.038-.15.075-.125.113-.113.113-.075.113-.038z" fill="#FAD520"/><path d="M14.663 14.775h.163l.113.038.063.063.038.15.025.25v.138l-.025.288v.7l-.013.413-.013.088.013.025.013.35v1.038l-.05.138-.075.113-.063.05-.075.025h-.113l-.125-.05-.063-.075-.025-.05-.025-.35-.013-.513v-.5l.013-.075-.013-.438v-.813l.013-.075v-.213l-.013-.113.013-.238-.013-.038v-.1l.075-.113.088-.075z" fill="#F9D420"/><path d="M14.488 5.138h1.137l.025.038v.35l-.05.025-.713.013v.575l.525.013.163.013.013.038v.213l-.013.15-.05.013-.563.013-.075.013-.013.575.75.013.025.05v.325l-.05.038-.213.013h-.775l-.125-.013-.025-.113V6.025l.013-.875zm-3.913-.013.138.013.15.05.113.088.1.113.075.15.025.088.013.2-.013.113-.038.025h-.3l-.038-.013-.013-.025-.013-.225-.05-.075-.063-.05-.075-.013-.1.038-.075.075v1.388l.075.088.088.025.088-.013.075-.05.038-.088.013-.225.088-.025h.263l.038.013v.35l-.063.15-.075.113-.088.088-.125.075-.138.05h-.15l-.188-.05-.138-.088-.113-.125-.063-.138-.038-.138V5.75l.025-.175.063-.163.088-.113.15-.113.15-.05zM13 5.138h1.15l.013.013v.375l-.038.025-.738.013v.463l.013.1.038.013.525.013.1.013.025.025v.35l-.025.038-.675.013-.013.975-.013.038-.088.013h-.188l-.088-.013-.025-.088V6.113l.013-.963z" fill="#FAD520"/><path d="M14.7 10.425h.338l.138.05.05.063.013.113v.213l-.013.663-.063.063-.05.025H14.6l-.1-.025-.163-.1-.088-.1-.063-.188-.013-.063v-.3l.075-.188.088-.113.1-.063.113-.025zm-5.163 0H9.9l.125.05.063.075.013.05-.013.913-.088.1h-.575l-.2-.1-.1-.125-.075-.225L9.037 11l.013-.125.05-.2.088-.113.113-.088.113-.025z" fill="#083B22"/><path d="M14.663 13.575h.175l.088.038.1.063.075.138.025.088v.125l-.025.113-.05.075-.088.088-.125.05h-.163l-.138-.063-.063-.063-.075-.1-.025-.063v-.138l.05-.15.075-.1.138-.088z" fill="#FAD520"/><path d="M12.038 5.55h.1l.075.05.05.063.013.025v.788l-.013.013-.15.013h-.15l-.063-.025v-.825l.1-.088z" fill="#083B22"/><path d="m15.15 7.975.05.013.1.3.013.113-.013.025-.213.063h-.1l-.175-.038h-.2l-.175.038-.063-.025.038-.063.063-.05.45-.225.138-.1zm.225-3.35.063.063.075.163-.038.038-.075.038-.263.025-.1.038h-.063l.025-.05.125-.113.138-.1.088-.088z" fill="#FAD520"/><path d="M7.6 11.825h.013l.013.113.013.038-.038.013-.075.013-.063.013.013-.05zM9.075 7.3h.2l.025.013-.025.05-.063-.013h-.05l-.05.038h-.05l-.013-.063zM7.463 9.25l.063.013.013.075-.038.05-.063-.013v-.088zm-.075-2.2h.05l.025.088v.075L7.4 7.2l-.038-.075zm-.463 5.988.05.025-.013.075-.038.025-.063-.05-.013-.05zM7.688 8h.063l.038.063-.025.075-.038-.013-.063-.088v-.025zm-.4.563.038.013.038.075-.013.038-.1-.013.013-.088zm2.2-1.613.05.013-.038.113-.05-.025-.025-.075zM6.65 12.875l.05.013v.088l-.038.038-.038-.013v-.1zm.775-5.613h.05l.05.1V7.4l-.063-.013-.038-.075zm-.163 4.588.05.025v.088l-.05.05-.013-.025v-.125zm1.113-4.1h.038L8.4 7.8l-.063.05-.075.013v-.025zm-1.65 5.438h.025l.013.088-.063.013-.025-.013.013-.063zM11.4 12.1h.063l-.038.113h-.038l-.025-.088h.038zm1.1 6.013h.063v.025l-.088.05-.063-.013v-.025zm-5.6-5.188.063.013.013.05-.05.038-.038-.063zm2.463-6.788h.075v.05l-.1.013v-.05zm3.213 11.788.075.025.025.038-.013.025-.05-.013-.038-.025zm-5.313-7.15h.063l.025.025v.038l-.063.013-.025-.025zm2.238 7.5.063.013-.013.05-.05.013-.025-.038zm1.888-9.2h.15l-.013.025-.088.013-.038.013-.038-.038zM8.763 5.6l.038.013-.013.063-.038.013-.025-.013.013-.05z" fill="#083B22"/></svg>